<?xml version="1.0" encoding="UTF-8"?>
<svg height="500" viewBox="0 0 1500 500" width="1500" xmlns="http://www.w3.org/2000/svg">
 <g fill="#ba2a8d">
  <path d="m155.2 212.3c3.8-11.8 9.4-22.2 16.9-31.3s16.9-16.3 28.1-21.7 24.2-8.1 39.1-8.1 27.9 2.7 39.1 8.1 20.6 12.6 28.1 21.7 13.2 19.5 16.9 31.3c3.8 11.8 5.7 24 5.7 36.7s-1.9 25-5.7 36.8-9.4 22.2-16.9 31.3-16.9 16.3-28.1 21.6-24.2 8-39.1 8-27.9-2.7-39.1-8-20.6-12.5-28.1-21.6-13.2-19.5-16.9-31.3c-3.8-11.8-5.6-24-5.6-36.8 0-12.7 1.8-24.9 5.6-36.7zm22.9 64.7c2.5 9.2 6.3 17.4 11.6 24.7s12 13.2 20.2 17.7 18 6.7 29.4 6.7 21.2-2.2 29.4-6.7 15-10.3 20.2-17.7c5.3-7.3 9.1-15.6 11.6-24.7 2.5-9.2 3.7-18.5 3.7-27.9s-1.2-18.7-3.7-27.9-6.3-17.4-11.6-24.7-12-13.2-20.2-17.7-18.1-6.7-29.4-6.7c-11.4 0-21.2 2.2-29.4 6.7s-15 10.3-20.2 17.7c-5.3 7.3-9.1 15.6-11.6 24.7-2.5 9.2-3.7 18.5-3.7 27.9 0 9.5 1.2 18.8 3.7 27.9z"/>
  <path d="m366.2 223.5v16.1h.4c3.2-6.6 8.3-11.4 15.2-14.4s14.5-4.5 22.8-4.5c9.2 0 17.2 1.7 24.1 5.1 6.8 3.4 12.5 7.9 17 13.7s7.9 12.4 10.2 19.9 3.5 15.5 3.5 23.9-1.1 16.4-3.3 24c-2.2 7.5-5.6 14.1-10.1 19.7s-10.2 10-17 13.2-14.8 4.8-23.8 4.8c-2.9 0-6.2-.3-9.8-.9s-7.2-1.6-10.7-3-6.9-3.3-10-5.7-5.8-5.3-7.9-8.9h-.4v61.5h-19.7v-164.5zm70 42.3c-1.5-5.3-3.7-10-6.7-14.2-3-4.1-6.8-7.4-11.5-9.9s-10.1-3.7-16.4-3.7c-6.6 0-12.2 1.3-16.8 3.9s-8.3 6-11.3 10.2c-2.9 4.2-5 9-6.3 14.4s-1.9 10.8-1.9 16.3c0 5.8.7 11.5 2.1 16.9 1.4 5.5 3.6 10.2 6.5 14.4 3 4.1 6.8 7.5 11.6 10s10.5 3.8 17.2 3.8 12.4-1.3 16.9-3.9 8.2-6.1 10.9-10.4c2.8-4.3 4.7-9.2 6-14.7 1.2-5.5 1.8-11.2 1.8-17 .1-5.4-.6-10.8-2.1-16.1z"/>
  <path d="m560 334.9c-8.9 6.7-20.1 10.1-33.7 10.1-9.5 0-17.8-1.5-24.8-4.6s-12.9-7.4-17.7-12.9-8.3-12.1-10.7-19.8-3.7-16-4-25.1c0-9.1 1.4-17.3 4.2-24.9 2.8-7.5 6.7-14 11.7-19.6 5-5.5 10.9-9.8 17.8-12.9 6.8-3.1 14.4-4.6 22.5-4.6 10.6 0 19.4 2.2 26.4 6.6s12.6 10 16.9 16.7c4.2 6.8 7.2 14.2 8.8 22.1 1.6 8 2.3 15.6 2 22.8h-89.4c-.2 5.2.5 10.2 1.8 14.8 1.4 4.7 3.6 8.8 6.7 12.4s7 6.5 11.7 8.6c4.8 2.1 10.4 3.2 16.8 3.2 8.3 0 15.1-1.9 20.4-5.8 5.3-3.8 8.8-9.7 10.5-17.5h19.4c-2.6 13.6-8.4 23.7-17.3 30.4zm-4.8-76.4c-1.8-4.1-4.1-7.7-7.1-10.7s-6.5-5.4-10.6-7.1c-4.1-1.8-8.5-2.6-13.5-2.6-5.1 0-9.6.9-13.7 2.6-4.1 1.8-7.5 4.2-10.5 7.2-2.9 3.1-5.2 6.6-6.9 10.7s-2.7 8.4-3 13h68.3c-.2-4.6-1.2-8.9-3-13.1z"/>
  <path d="m610.9 223.5v18.9h.4c8.2-14.4 21.1-21.7 38.9-21.7 7.9 0 14.4 1.1 19.7 3.2 5.2 2.2 9.5 5.1 12.7 9 3.2 3.8 5.5 8.4 6.8 13.7s2 11.2 2 17.6v78.4h-19.7v-80.6c0-7.4-2.2-13.2-6.5-17.5s-10.2-6.5-17.8-6.5c-6 0-11.2.9-15.6 2.8-4.4 1.8-8.1 4.5-11 7.8-2.9 3.4-5.1 7.3-6.6 11.9-1.5 4.5-2.2 9.5-2.2 14.9v67.3h-19.7v-119.2z"/>
  <path d="m827.8 341.4c-8.9 3.8-17.9 5.6-27 5.6-14.3 0-27.2-2.5-38.7-7.5-11.4-5-21.1-11.9-29-20.6-7.9-8.8-13.9-19-18.1-30.9-4.2-11.8-6.3-24.6-6.3-38.2 0-14 2.1-27 6.3-39s10.2-22.5 18-31.4 17.5-15.9 28.9-21 24.3-7.6 38.7-7.6c9.6 0 18.9 1.5 27.9 4.3 9 2.9 17.1 7.2 24.4 12.8s13.2 12.5 18 20.8c4.7 8.2 7.6 17.7 8.7 28.3h-39.3c-2.4-10.5-7.2-18.3-14.2-23.6-7-5.2-15.5-7.9-25.4-7.9-9.3 0-17.1 1.8-23.6 5.4s-11.7 8.4-15.7 14.4-6.9 12.9-8.8 20.6c-1.8 7.7-2.8 15.7-2.8 23.9 0 7.9.9 15.5 2.8 23s4.8 14.1 8.8 20.1 9.3 10.7 15.7 14.3c6.5 3.6 14.3 5.4 23.6 5.4 13.6 0 24.2-3.4 31.6-10.3s11.8-16.9 13-29.9h-41.3v-30.8h78.5v101.2h-26.1l-4.2-21.2c-7.3 9.4-15.5 16-24.4 19.8z"/>
  <path d="m949.3 155.6v152.3h91.2v34.8h-132.3v-187.1z"/>
  <path d="m755.1 365.9c-62.8 38.2-156.9 59.9-261.9 59.9-189.1 0-342.4-78.8-342.4-175.9s153.3-175.9 342.4-175.9c105.4 0 199.8 22.1 262.6 60.6-68.5-64.3-191.4-109.6-332-109.6-215.3 0-389.8 100.7-389.8 224.9 0 124.3 174.5 225.1 389.7 225.1 140 0 262.7-45.1 331.4-109.1z"/>
  <path d="m1102.8 155.2h139.9v34.6h-98.8v40.1h90.7v32h-90.7v45.9h100.9v34.6h-142z"/>
  <path d="m1292.8 280.2c0 24.9 19.4 34.6 41.4 34.6 14.4 0 36.4-4.2 36.4-23.3 0-20.2-28-23.6-55.6-30.9-27.8-7.3-55.8-18.1-55.8-53.2 0-38.3 36.2-56.6 70-56.6 39.1 0 75 17 75 60.3h-39.8c-1.3-22.5-17.3-28.3-37-28.3-13.1 0-28.3 5.5-28.3 21.2 0 14.4 8.9 16.3 55.8 28.3 13.6 3.4 55.6 12.1 55.6 54.5 0 34.3-27 60-77.8 60-41.4 0-80.2-20.4-79.7-66.6z"/>
  <path d="m1070.5 102.9v293.6" stroke="#ba2a8d" stroke-linecap="round" stroke-width="11.645"/>
 </g>
 <g fill="#ba2a8d">
  <path d="m1436 160.6h-7.3v18.9h-6.3v-18.9h-7.3v-5.5h20.9z"/>
  <path d="m1438.9 155.2h9.3l4.2 16.2h.1l4.2-16.2h9.3v24.4h-6v-18.6h-.1l-5.1 18.5h-4.8l-5.1-18.5h-.1v18.5h-6v-24.3z"/>
 </g>
 <path d="m1003.8 172.5c0 3.1-.8 6.1-2.4 8.8s-3.7 4.9-6.4 6.4c-2.7 1.6-5.6 2.3-8.8 2.3-3.1 0-6-.8-8.8-2.3-2.7-1.6-4.9-3.7-6.4-6.4-1.6-2.7-2.4-5.6-2.4-8.8 0-3.1.8-6 2.4-8.8 1.6-2.7 3.7-4.9 6.4-6.4 2.7-1.6 5.6-2.3 8.8-2.3 3.1 0 6.1.8 8.8 2.3 2.7 1.6 4.9 3.7 6.4 6.4 1.6 2.8 2.4 5.7 2.4 8.8zm-3.4 0c0-3.9-1.4-7.2-4.1-10-2.8-2.8-6.1-4.1-10-4.1s-7.2 1.4-10 4.1c-2.8 2.8-4.1 6.1-4.1 10s1.4 7.2 4.1 10c2.8 2.8 6.1 4.1 10 4.1s7.2-1.4 10-4.1c2.7-2.7 4.1-6.1 4.1-10zm-22.1-9.3h8.4c2.4 0 4.1.5 5.2 1.4 1.1 1 1.6 2.2 1.6 3.9 0 1.3-.4 2.3-1.2 3.3-.8.9-2.1 1.6-3.8 2 .7.3 1.2.6 1.6.9.5.4 1 1.1 1.5 1.9 0 .1 1 1.9 3 5.4h-5.6c-1.8-3.6-3-5.7-3.6-6.4s-1.2-1-1.8-1c-.1 0-.3 0-.6.1v7.4h-4.7zm4.7 7.9h2c1.3 0 2.3-.2 2.9-.7.6-.4.8-1 .8-1.7s-.3-1.3-.8-1.7-1.4-.7-2.7-.7h-2.2z" fill="#ba2a8d"/>
</svg>
