<?xml version="1.0" encoding="utf-8"?>
<!-- Generator: Adobe Illustrator 22.0.1, SVG Export Plug-In . SVG Version: 6.00 Build 0)  -->
<svg version="1.1" baseProfile="tiny" id="OpenGL_ES"
	 xmlns="http://www.w3.org/2000/svg" xmlns:xlink="http://www.w3.org/1999/xlink" x="0px" y="0px" width="1500px" height="500px"
	 viewBox="0 0 1500 500" xml:space="preserve">
<g>
	<g>
		<g>
			<path fill="#BA2A8D" d="M155.2,212.3c3.8-11.8,9.4-22.2,16.9-31.3c7.5-9.1,16.9-16.3,28.1-21.7c11.2-5.4,24.2-8.1,39.1-8.1
				c14.9,0,27.9,2.7,39.1,8.1c11.2,5.4,20.6,12.6,28.1,21.7c7.5,9.1,13.2,19.5,16.9,31.3c3.8,11.8,5.7,24,5.7,36.7
				c0,12.7-1.9,25-5.7,36.8c-3.8,11.8-9.4,22.2-16.9,31.3c-7.5,9.1-16.9,16.3-28.1,21.6c-11.2,5.3-24.2,8-39.1,8
				c-14.9,0-27.9-2.7-39.1-8c-11.2-5.3-20.6-12.5-28.1-21.6c-7.5-9.1-13.2-19.5-16.9-31.3c-3.8-11.8-5.6-24-5.6-36.8
				C149.6,236.3,151.4,224.1,155.2,212.3z M178.1,277c2.5,9.2,6.3,17.4,11.6,24.7c5.3,7.3,12,13.2,20.2,17.7
				c8.2,4.5,18,6.7,29.4,6.7c11.4,0,21.2-2.2,29.4-6.7c8.2-4.5,15-10.3,20.2-17.7c5.3-7.3,9.1-15.6,11.6-24.7
				c2.5-9.2,3.7-18.5,3.7-27.9c0-9.4-1.2-18.7-3.7-27.9c-2.5-9.2-6.3-17.4-11.6-24.7c-5.3-7.3-12-13.2-20.2-17.7
				c-8.2-4.5-18.1-6.7-29.4-6.7c-11.4,0-21.2,2.2-29.4,6.7c-8.2,4.5-15,10.3-20.2,17.7c-5.3,7.3-9.1,15.6-11.6,24.7
				c-2.5,9.2-3.7,18.5-3.7,27.9C174.4,258.6,175.6,267.9,178.1,277z"/>
			<path fill="#BA2A8D" d="M366.2,223.5v16.1h0.4c3.2-6.6,8.3-11.4,15.2-14.4c6.9-3,14.5-4.5,22.8-4.5c9.2,0,17.2,1.7,24.1,5.1
				c6.8,3.4,12.5,7.9,17,13.7c4.5,5.8,7.9,12.4,10.2,19.9c2.3,7.5,3.5,15.5,3.5,23.9c0,8.4-1.1,16.4-3.3,24
				c-2.2,7.5-5.6,14.1-10.1,19.7c-4.5,5.6-10.2,10-17,13.2c-6.8,3.2-14.8,4.8-23.8,4.8c-2.9,0-6.2-0.3-9.8-0.9
				c-3.6-0.6-7.2-1.6-10.7-3c-3.5-1.4-6.9-3.3-10-5.7c-3.1-2.4-5.8-5.3-7.9-8.9h-0.4v61.5h-19.7V223.5H366.2z M436.2,265.8
				c-1.5-5.3-3.7-10-6.7-14.2c-3-4.1-6.8-7.4-11.5-9.9c-4.7-2.5-10.1-3.7-16.4-3.7c-6.6,0-12.2,1.3-16.8,3.9
				c-4.6,2.6-8.3,6-11.3,10.2c-2.9,4.2-5,9-6.3,14.4c-1.3,5.4-1.9,10.8-1.9,16.3c0,5.8,0.7,11.5,2.1,16.9c1.4,5.5,3.6,10.2,6.5,14.4
				c3,4.1,6.8,7.5,11.6,10c4.8,2.5,10.5,3.8,17.2,3.8c6.7,0,12.4-1.3,16.9-3.9c4.5-2.6,8.2-6.1,10.9-10.4c2.8-4.3,4.7-9.2,6-14.7
				c1.2-5.5,1.8-11.2,1.8-17C438.4,276.5,437.7,271.1,436.2,265.8z"/>
			<path fill="#BA2A8D" d="M560,334.9c-8.9,6.7-20.1,10.1-33.7,10.1c-9.5,0-17.8-1.5-24.8-4.6c-7-3.1-12.9-7.4-17.7-12.9
				c-4.8-5.5-8.3-12.1-10.7-19.8c-2.4-7.7-3.7-16-4-25.1c0-9.1,1.4-17.3,4.2-24.9c2.8-7.5,6.7-14,11.7-19.6
				c5-5.5,10.9-9.8,17.8-12.9c6.8-3.1,14.4-4.6,22.5-4.6c10.6,0,19.4,2.2,26.4,6.6c7,4.4,12.6,10,16.9,16.7
				c4.2,6.8,7.2,14.2,8.8,22.1c1.6,8,2.3,15.6,2,22.8H490c-0.2,5.2,0.5,10.2,1.8,14.8c1.4,4.7,3.6,8.8,6.7,12.4
				c3.1,3.6,7,6.5,11.7,8.6c4.8,2.1,10.4,3.2,16.8,3.2c8.3,0,15.1-1.9,20.4-5.8c5.3-3.8,8.8-9.7,10.5-17.5h19.4
				C574.7,318.1,568.9,328.2,560,334.9z M555.2,258.5c-1.8-4.1-4.1-7.7-7.1-10.7c-3-3-6.5-5.4-10.6-7.1c-4.1-1.8-8.5-2.6-13.5-2.6
				c-5.1,0-9.6,0.9-13.7,2.6c-4.1,1.8-7.5,4.2-10.5,7.2c-2.9,3.1-5.2,6.6-6.9,10.7c-1.7,4.1-2.7,8.4-3,13h68.3
				C558,267,557,262.7,555.2,258.5z"/>
			<path fill="#BA2A8D" d="M610.9,223.5v18.9h0.4c8.2-14.4,21.1-21.7,38.9-21.7c7.9,0,14.4,1.1,19.7,3.2c5.2,2.2,9.5,5.1,12.7,9
				c3.2,3.8,5.5,8.4,6.8,13.7c1.3,5.3,2,11.2,2,17.6v78.4h-19.7V262c0-7.4-2.2-13.2-6.5-17.5c-4.3-4.3-10.2-6.5-17.8-6.5
				c-6,0-11.2,0.9-15.6,2.8c-4.4,1.8-8.1,4.5-11,7.8c-2.9,3.4-5.1,7.3-6.6,11.9c-1.5,4.5-2.2,9.5-2.2,14.9v67.3h-19.7V223.5H610.9z"
				/>
			<path fill="#BA2A8D" d="M827.8,341.4c-8.9,3.8-17.9,5.6-27,5.6c-14.3,0-27.2-2.5-38.7-7.5c-11.4-5-21.1-11.9-29-20.6
				c-7.9-8.8-13.9-19-18.1-30.9c-4.2-11.8-6.3-24.6-6.3-38.2c0-14,2.1-27,6.3-39c4.2-12,10.2-22.5,18-31.4
				c7.8-8.9,17.5-15.9,28.9-21c11.4-5.1,24.3-7.6,38.7-7.6c9.6,0,18.9,1.5,27.9,4.3c9,2.9,17.1,7.2,24.4,12.8
				c7.3,5.6,13.2,12.5,18,20.8c4.7,8.2,7.6,17.7,8.7,28.3h-39.3c-2.4-10.5-7.2-18.3-14.2-23.6c-7-5.2-15.5-7.9-25.4-7.9
				c-9.3,0-17.1,1.8-23.6,5.4c-6.5,3.6-11.7,8.4-15.7,14.4c-4,6-6.9,12.9-8.8,20.6c-1.8,7.7-2.8,15.7-2.8,23.9
				c0,7.9,0.9,15.5,2.8,23s4.8,14.1,8.8,20.1c4,6,9.3,10.7,15.7,14.3c6.5,3.6,14.3,5.4,23.6,5.4c13.6,0,24.2-3.4,31.6-10.3
				c7.4-6.9,11.8-16.9,13-29.9H804v-30.8h78.5v101.2h-26.1l-4.2-21.2C844.9,331,836.7,337.6,827.8,341.4z"/>
			<polygon fill="#BA2A8D" points="949.3,155.6 949.3,307.9 1040.5,307.9 1040.5,342.7 908.2,342.7 908.2,155.6 			"/>
		</g>
		<path fill="#BA2A8D" d="M755.1,365.9c-62.8,38.2-156.9,59.9-261.9,59.9c-189.1,0-342.4-78.8-342.4-175.9
			c0-97.1,153.3-175.9,342.4-175.9c105.4,0,199.8,22.1,262.6,60.6C687.3,70.3,564.4,25,423.8,25C208.5,25,34,125.7,34,249.9
			C34,374.2,208.5,475,423.7,475C563.7,475,686.4,429.9,755.1,365.9z"/>
		<g>
			<polygon fill="#BA2A8D" points="1102.8,155.2 1242.7,155.2 1242.7,189.8 1143.9,189.8 1143.9,229.9 1234.6,229.9 1234.6,261.9 
				1143.9,261.9 1143.9,307.8 1244.8,307.8 1244.8,342.4 1102.8,342.4 			"/>
			<path fill="#BA2A8D" d="M1292.8,280.2c0,24.9,19.4,34.6,41.4,34.6c14.4,0,36.4-4.2,36.4-23.3c0-20.2-28-23.6-55.6-30.9
				c-27.8-7.3-55.8-18.1-55.8-53.2c0-38.3,36.2-56.6,70-56.6c39.1,0,75,17,75,60.3h-39.8c-1.3-22.5-17.3-28.3-37-28.3
				c-13.1,0-28.3,5.5-28.3,21.2c0,14.4,8.9,16.3,55.8,28.3c13.6,3.4,55.6,12.1,55.6,54.5c0,34.3-27,60-77.8,60
				c-41.4,0-80.2-20.4-79.7-66.6L1292.8,280.2L1292.8,280.2L1292.8,280.2z"/>
		</g>
		
			<line fill="#BA2A8D" stroke="#BA2A8D" stroke-width="11.6449" stroke-linecap="round" x1="1070.5" y1="102.9" x2="1070.5" y2="396.5"/>
	</g>
</g>
<g>
	<path fill="#BA2A8D" d="M1436,160.6h-7.3v18.9h-6.3v-18.9h-7.3v-5.5h20.9V160.6z"/>
	<path fill="#BA2A8D" d="M1438.9,155.2h9.3l4.2,16.2h0.1l4.2-16.2h9.3v24.4h-6V161h-0.1l-5.1,18.5h-4.8l-5.1-18.5h-0.1v18.5h-6
		V155.2z"/>
</g>
<g>
	<path fill="#BA2A8D" d="M1003.8,172.5c0,3.1-0.8,6.1-2.4,8.8s-3.7,4.9-6.4,6.4c-2.7,1.6-5.6,2.3-8.8,2.3c-3.1,0-6-0.8-8.8-2.3
		c-2.7-1.6-4.9-3.7-6.4-6.4c-1.6-2.7-2.4-5.6-2.4-8.8c0-3.1,0.8-6,2.4-8.8c1.6-2.7,3.7-4.9,6.4-6.4c2.7-1.6,5.6-2.3,8.8-2.3
		c3.1,0,6.1,0.8,8.8,2.3c2.7,1.6,4.9,3.7,6.4,6.4C1003,166.5,1003.8,169.4,1003.8,172.5z M1000.4,172.5c0-3.9-1.4-7.2-4.1-10
		c-2.8-2.8-6.1-4.1-10-4.1c-3.9,0-7.2,1.4-10,4.1c-2.8,2.8-4.1,6.1-4.1,10s1.4,7.2,4.1,10c2.8,2.8,6.1,4.1,10,4.1
		c3.9,0,7.2-1.4,10-4.1C999,179.8,1000.4,176.4,1000.4,172.5z M978.3,163.2h8.4c2.4,0,4.1,0.5,5.2,1.4c1.1,1,1.6,2.2,1.6,3.9
		c0,1.3-0.4,2.3-1.2,3.3c-0.8,0.9-2.1,1.6-3.8,2c0.7,0.3,1.2,0.6,1.6,0.9c0.5,0.4,1,1.1,1.5,1.9c0,0.1,1,1.9,3,5.4H989
		c-1.8-3.6-3-5.7-3.6-6.4c-0.6-0.7-1.2-1-1.8-1c-0.1,0-0.3,0-0.6,0.1v7.4h-4.7L978.3,163.2L978.3,163.2z M983,171.1h2
		c1.3,0,2.3-0.2,2.9-0.7c0.6-0.4,0.8-1,0.8-1.7c0-0.7-0.3-1.3-0.8-1.7c-0.5-0.4-1.4-0.7-2.7-0.7H983L983,171.1L983,171.1z"/>
</g>
</svg>
